<?xml version="1.0" encoding="UTF-8" standalone="no"?>
<!DOCTYPE svg PUBLIC "-//W3C//DTD SVG 1.1//EN"
 "http://www.w3.org/Graphics/SVG/1.1/DTD/svg11.dtd">
<!-- Generated by graphviz version 2.47.0 (20210316.0004)
 -->
<!-- Title: dbml Pages: 1 -->
<svg width="1964pt" height="2304pt"
 viewBox="0.00 0.00 1963.73 2304.13" xmlns="http://www.w3.org/2000/svg" xmlns:xlink="http://www.w3.org/1999/xlink">
<g id="graph0" class="graph" transform="scale(1 1) rotate(0) translate(4 2300.13)">
<title>dbml</title>
<!-- Dog -->
<g id="Dog" class="node">
<title>Dog</title>
<ellipse fill="none" stroke="black" stroke-width="0" cx="977.87" cy="-1807.66" rx="295.64" ry="427.19"/>
<polygon fill="#1d71b8" stroke="transparent" points="770.87,-2047.66 770.87,-2107.66 1184.87,-2107.66 1184.87,-2047.66 770.87,-2047.66"/>
<polygon fill="none" stroke="#29235c" points="770.87,-2047.66 770.87,-2107.66 1184.87,-2107.66 1184.87,-2047.66 770.87,-2047.66"/>
<text text-anchor="start" x="886.28" y="-2068.86" font-family="Helvetica,sans-Serif" font-weight="bold" font-size="32.00" fill="#ffffff"> &#160;&#160;&#160;&#160;&#160;&#160;Dog &#160;&#160;&#160;&#160;&#160;&#160;</text>
<polygon fill="#e7e2dd" stroke="transparent" points="770.87,-1987.66 770.87,-2047.66 1184.87,-2047.66 1184.87,-1987.66 770.87,-1987.66"/>
<polygon fill="none" stroke="#29235c" points="770.87,-1987.66 770.87,-2047.66 1184.87,-2047.66 1184.87,-1987.66 770.87,-1987.66"/>
<text text-anchor="start" x="781.87" y="-2008.86" font-family="Helvetica,sans-Serif" font-weight="bold" font-size="32.00" fill="#29235c">id</text>
<text text-anchor="start" x="806.76" y="-2008.86" font-family="Helvetica,sans-Serif" font-size="32.00" fill="#29235c"> &#160;&#160;&#160;</text>
<text text-anchor="start" x="1031.65" y="-2008.86" font-family="Helvetica,sans-Serif" font-style="italic" font-size="32.00" fill="#29235c">INTEGER</text>
<polygon fill="#e7e2dd" stroke="transparent" points="770.87,-1927.66 770.87,-1987.66 1184.87,-1987.66 1184.87,-1927.66 770.87,-1927.66"/>
<polygon fill="none" stroke="#29235c" points="770.87,-1927.66 770.87,-1987.66 1184.87,-1987.66 1184.87,-1927.66 770.87,-1927.66"/>
<text text-anchor="start" x="781.87" y="-1947.86" font-family="Helvetica,sans-Serif" font-size="32.00" fill="#29235c">owner_id &#160;&#160;&#160;</text>
<text text-anchor="start" x="1031.65" y="-1948.86" font-family="Helvetica,sans-Serif" font-style="italic" font-size="32.00" fill="#29235c">INTEGER</text>
<polygon fill="#e7e2dd" stroke="transparent" points="770.87,-1867.66 770.87,-1927.66 1184.87,-1927.66 1184.87,-1867.66 770.87,-1867.66"/>
<polygon fill="none" stroke="#29235c" points="770.87,-1867.66 770.87,-1927.66 1184.87,-1927.66 1184.87,-1867.66 770.87,-1867.66"/>
<text text-anchor="start" x="781.87" y="-1887.86" font-family="Helvetica,sans-Serif" font-size="32.00" fill="#29235c">name &#160;&#160;&#160;</text>
<text text-anchor="start" x="1017.44" y="-1888.86" font-family="Helvetica,sans-Serif" font-style="italic" font-size="32.00" fill="#29235c">VARCHAR</text>
<polygon fill="#e7e2dd" stroke="transparent" points="770.87,-1807.66 770.87,-1867.66 1184.87,-1867.66 1184.87,-1807.66 770.87,-1807.66"/>
<polygon fill="none" stroke="#29235c" points="770.87,-1807.66 770.87,-1867.66 1184.87,-1867.66 1184.87,-1807.66 770.87,-1807.66"/>
<text text-anchor="start" x="781.87" y="-1827.86" font-family="Helvetica,sans-Serif" font-size="32.00" fill="#29235c">breed &#160;&#160;&#160;</text>
<text text-anchor="start" x="1017.44" y="-1828.86" font-family="Helvetica,sans-Serif" font-style="italic" font-size="32.00" fill="#29235c">VARCHAR</text>
<polygon fill="#e7e2dd" stroke="transparent" points="770.87,-1747.66 770.87,-1807.66 1184.87,-1807.66 1184.87,-1747.66 770.87,-1747.66"/>
<polygon fill="none" stroke="#29235c" points="770.87,-1747.66 770.87,-1807.66 1184.87,-1807.66 1184.87,-1747.66 770.87,-1747.66"/>
<text text-anchor="start" x="781.87" y="-1767.86" font-family="Helvetica,sans-Serif" font-size="32.00" fill="#29235c">size &#160;&#160;&#160;</text>
<text text-anchor="start" x="1017.44" y="-1768.86" font-family="Helvetica,sans-Serif" font-style="italic" font-size="32.00" fill="#29235c">VARCHAR</text>
<polygon fill="#e7e2dd" stroke="transparent" points="770.87,-1687.66 770.87,-1747.66 1184.87,-1747.66 1184.87,-1687.66 770.87,-1687.66"/>
<polygon fill="none" stroke="#29235c" points="770.87,-1687.66 770.87,-1747.66 1184.87,-1747.66 1184.87,-1687.66 770.87,-1687.66"/>
<text text-anchor="start" x="781.87" y="-1707.86" font-family="Helvetica,sans-Serif" font-size="32.00" fill="#29235c">notes &#160;&#160;&#160;</text>
<text text-anchor="start" x="1017.44" y="-1708.86" font-family="Helvetica,sans-Serif" font-style="italic" font-size="32.00" fill="#29235c">VARCHAR</text>
<polygon fill="#e7e2dd" stroke="transparent" points="770.87,-1627.66 770.87,-1687.66 1184.87,-1687.66 1184.87,-1627.66 770.87,-1627.66"/>
<polygon fill="none" stroke="#29235c" points="770.87,-1627.66 770.87,-1687.66 1184.87,-1687.66 1184.87,-1627.66 770.87,-1627.66"/>
<text text-anchor="start" x="781.87" y="-1647.86" font-family="Helvetica,sans-Serif" font-size="32.00" fill="#29235c">created_date &#160;&#160;&#160;</text>
<text text-anchor="start" x="1012.1" y="-1648.86" font-family="Helvetica,sans-Serif" font-style="italic" font-size="32.00" fill="#29235c">DATETIME</text>
<polygon fill="#e7e2dd" stroke="transparent" points="770.87,-1567.66 770.87,-1627.66 1184.87,-1627.66 1184.87,-1567.66 770.87,-1567.66"/>
<polygon fill="none" stroke="#29235c" points="770.87,-1567.66 770.87,-1627.66 1184.87,-1627.66 1184.87,-1567.66 770.87,-1567.66"/>
<text text-anchor="start" x="781.74" y="-1587.86" font-family="Helvetica,sans-Serif" font-size="32.00" fill="#29235c">updated_date &#160;&#160;&#160;</text>
<text text-anchor="start" x="1012.48" y="-1588.86" font-family="Helvetica,sans-Serif" font-style="italic" font-size="32.00" fill="#29235c">DATETIME</text>
<polygon fill="#e7e2dd" stroke="transparent" points="770.87,-1507.66 770.87,-1567.66 1184.87,-1567.66 1184.87,-1507.66 770.87,-1507.66"/>
<polygon fill="none" stroke="#29235c" points="770.87,-1507.66 770.87,-1567.66 1184.87,-1567.66 1184.87,-1507.66 770.87,-1507.66"/>
<text text-anchor="start" x="781.87" y="-1527.86" font-family="Helvetica,sans-Serif" font-size="32.00" fill="#29235c">created_by &#160;&#160;&#160;</text>
<text text-anchor="start" x="1017.44" y="-1528.86" font-family="Helvetica,sans-Serif" font-style="italic" font-size="32.00" fill="#29235c">VARCHAR</text>
<polygon fill="none" stroke="#29235c" stroke-width="2" points="769.87,-1506.66 769.87,-2108.66 1185.87,-2108.66 1185.87,-1506.66 769.87,-1506.66"/>
</g>
<!-- Owner -->
<g id="Owner" class="node">
<title>Owner</title>
<ellipse fill="none" stroke="black" stroke-width="0" cx="1660.16" cy="-1837.66" rx="295.64" ry="384.83"/>
<polygon fill="#1d71b8" stroke="transparent" points="1453.16,-2047.66 1453.16,-2107.66 1867.16,-2107.66 1867.16,-2047.66 1453.16,-2047.66"/>
<polygon fill="none" stroke="#29235c" points="1453.16,-2047.66 1453.16,-2107.66 1867.16,-2107.66 1867.16,-2047.66 1453.16,-2047.66"/>
<text text-anchor="start" x="1550.8" y="-2068.86" font-family="Helvetica,sans-Serif" font-weight="bold" font-size="32.00" fill="#ffffff"> &#160;&#160;&#160;&#160;&#160;&#160;Owner &#160;&#160;&#160;&#160;&#160;&#160;</text>
<polygon fill="#e7e2dd" stroke="transparent" points="1453.16,-1987.66 1453.16,-2047.66 1867.16,-2047.66 1867.16,-1987.66 1453.16,-1987.66"/>
<polygon fill="none" stroke="#29235c" points="1453.16,-1987.66 1453.16,-2047.66 1867.16,-2047.66 1867.16,-1987.66 1453.16,-1987.66"/>
<text text-anchor="start" x="1464.16" y="-2008.86" font-family="Helvetica,sans-Serif" font-weight="bold" font-size="32.00" fill="#29235c">id</text>
<text text-anchor="start" x="1489.05" y="-2008.86" font-family="Helvetica,sans-Serif" font-size="32.00" fill="#29235c"> &#160;&#160;&#160;</text>
<text text-anchor="start" x="1713.94" y="-2008.86" font-family="Helvetica,sans-Serif" font-style="italic" font-size="32.00" fill="#29235c">INTEGER</text>
<polygon fill="#e7e2dd" stroke="transparent" points="1453.16,-1927.66 1453.16,-1987.66 1867.16,-1987.66 1867.16,-1927.66 1453.16,-1927.66"/>
<polygon fill="none" stroke="#29235c" points="1453.16,-1927.66 1453.16,-1987.66 1867.16,-1987.66 1867.16,-1927.66 1453.16,-1927.66"/>
<text text-anchor="start" x="1464.16" y="-1947.86" font-family="Helvetica,sans-Serif" font-size="32.00" fill="#29235c">name &#160;&#160;&#160;</text>
<text text-anchor="start" x="1699.74" y="-1948.86" font-family="Helvetica,sans-Serif" font-style="italic" font-size="32.00" fill="#29235c">VARCHAR</text>
<polygon fill="#e7e2dd" stroke="transparent" points="1453.16,-1867.66 1453.16,-1927.66 1867.16,-1927.66 1867.16,-1867.66 1453.16,-1867.66"/>
<polygon fill="none" stroke="#29235c" points="1453.16,-1867.66 1453.16,-1927.66 1867.16,-1927.66 1867.16,-1867.66 1453.16,-1867.66"/>
<text text-anchor="start" x="1464.16" y="-1887.86" font-family="Helvetica,sans-Serif" font-size="32.00" fill="#29235c">address &#160;&#160;&#160;</text>
<text text-anchor="start" x="1699.74" y="-1888.86" font-family="Helvetica,sans-Serif" font-style="italic" font-size="32.00" fill="#29235c">VARCHAR</text>
<polygon fill="#e7e2dd" stroke="transparent" points="1453.16,-1807.66 1453.16,-1867.66 1867.16,-1867.66 1867.16,-1807.66 1453.16,-1807.66"/>
<polygon fill="none" stroke="#29235c" points="1453.16,-1807.66 1453.16,-1867.66 1867.16,-1867.66 1867.16,-1807.66 1453.16,-1807.66"/>
<text text-anchor="start" x="1464.16" y="-1827.86" font-family="Helvetica,sans-Serif" font-size="32.00" fill="#29235c">phone &#160;&#160;&#160;</text>
<text text-anchor="start" x="1699.74" y="-1828.86" font-family="Helvetica,sans-Serif" font-style="italic" font-size="32.00" fill="#29235c">VARCHAR</text>
<polygon fill="#e7e2dd" stroke="transparent" points="1453.16,-1747.66 1453.16,-1807.66 1867.16,-1807.66 1867.16,-1747.66 1453.16,-1747.66"/>
<polygon fill="none" stroke="#29235c" points="1453.16,-1747.66 1453.16,-1807.66 1867.16,-1807.66 1867.16,-1747.66 1453.16,-1747.66"/>
<text text-anchor="start" x="1464.16" y="-1767.86" font-family="Helvetica,sans-Serif" font-size="32.00" fill="#29235c">email &#160;&#160;&#160;</text>
<text text-anchor="start" x="1699.74" y="-1768.86" font-family="Helvetica,sans-Serif" font-style="italic" font-size="32.00" fill="#29235c">VARCHAR</text>
<polygon fill="#e7e2dd" stroke="transparent" points="1453.16,-1687.66 1453.16,-1747.66 1867.16,-1747.66 1867.16,-1687.66 1453.16,-1687.66"/>
<polygon fill="none" stroke="#29235c" points="1453.16,-1687.66 1453.16,-1747.66 1867.16,-1747.66 1867.16,-1687.66 1453.16,-1687.66"/>
<text text-anchor="start" x="1464.16" y="-1707.86" font-family="Helvetica,sans-Serif" font-size="32.00" fill="#29235c">created_date &#160;&#160;&#160;</text>
<text text-anchor="start" x="1694.4" y="-1708.86" font-family="Helvetica,sans-Serif" font-style="italic" font-size="32.00" fill="#29235c">DATETIME</text>
<polygon fill="#e7e2dd" stroke="transparent" points="1453.16,-1627.66 1453.16,-1687.66 1867.16,-1687.66 1867.16,-1627.66 1453.16,-1627.66"/>
<polygon fill="none" stroke="#29235c" points="1453.16,-1627.66 1453.16,-1687.66 1867.16,-1687.66 1867.16,-1627.66 1453.16,-1627.66"/>
<text text-anchor="start" x="1464.04" y="-1647.86" font-family="Helvetica,sans-Serif" font-size="32.00" fill="#29235c">updated_date &#160;&#160;&#160;</text>
<text text-anchor="start" x="1694.78" y="-1648.86" font-family="Helvetica,sans-Serif" font-style="italic" font-size="32.00" fill="#29235c">DATETIME</text>
<polygon fill="#e7e2dd" stroke="transparent" points="1453.16,-1567.66 1453.16,-1627.66 1867.16,-1627.66 1867.16,-1567.66 1453.16,-1567.66"/>
<polygon fill="none" stroke="#29235c" points="1453.16,-1567.66 1453.16,-1627.66 1867.16,-1627.66 1867.16,-1567.66 1453.16,-1567.66"/>
<text text-anchor="start" x="1464.16" y="-1587.86" font-family="Helvetica,sans-Serif" font-size="32.00" fill="#29235c">created_by &#160;&#160;&#160;</text>
<text text-anchor="start" x="1699.74" y="-1588.86" font-family="Helvetica,sans-Serif" font-style="italic" font-size="32.00" fill="#29235c">VARCHAR</text>
<polygon fill="none" stroke="#29235c" stroke-width="2" points="1452.16,-1566.66 1452.16,-2108.66 1868.16,-2108.66 1868.16,-1566.66 1452.16,-1566.66"/>
</g>
<!-- Dog&#45;&gt;Owner -->
<!-- Dog&#45;&gt;Owner -->
<g id="edge2" class="edge">
<title>Dog:e&#45;&gt;Owner:w</title>
<path fill="none" stroke="#29235c" stroke-width="3" d="M1185.87,-1957.66C1303.75,-1957.66 1329.42,-2014.31 1442.08,-2017.52"/>
<polygon fill="#29235c" stroke="#29235c" stroke-width="3" points="1442.11,-2021.02 1452.16,-2017.66 1442.21,-2014.02 1442.11,-2021.02"/>
<text text-anchor="middle" x="1458.38" y="-2027.26" font-family="Helvetica,sans-Serif" font-size="32.00" fill="#29235c">*</text>
<text text-anchor="middle" x="1194.76" y="-1967.26" font-family="Helvetica,sans-Serif" font-size="32.00" fill="#29235c">1</text>
</g>
<!-- WalkRequest -->
<g id="WalkRequest" class="node">
<title>WalkRequest</title>
<ellipse fill="none" stroke="black" stroke-width="0" cx="295.57" cy="-1777.66" rx="295.64" ry="469.54"/>
<polygon fill="#1d71b8" stroke="transparent" points="88.57,-2047.66 88.57,-2107.66 502.57,-2107.66 502.57,-2047.66 88.57,-2047.66"/>
<polygon fill="none" stroke="#29235c" points="88.57,-2047.66 88.57,-2107.66 502.57,-2107.66 502.57,-2047.66 88.57,-2047.66"/>
<text text-anchor="start" x="138.2" y="-2068.86" font-family="Helvetica,sans-Serif" font-weight="bold" font-size="32.00" fill="#ffffff"> &#160;&#160;&#160;&#160;&#160;&#160;WalkRequest &#160;&#160;&#160;&#160;&#160;&#160;</text>
<polygon fill="#e7e2dd" stroke="transparent" points="88.57,-1987.66 88.57,-2047.66 502.57,-2047.66 502.57,-1987.66 88.57,-1987.66"/>
<polygon fill="none" stroke="#29235c" points="88.57,-1987.66 88.57,-2047.66 502.57,-2047.66 502.57,-1987.66 88.57,-1987.66"/>
<text text-anchor="start" x="99.57" y="-2008.86" font-family="Helvetica,sans-Serif" font-weight="bold" font-size="32.00" fill="#29235c">id</text>
<text text-anchor="start" x="124.46" y="-2008.86" font-family="Helvetica,sans-Serif" font-size="32.00" fill="#29235c"> &#160;&#160;&#160;</text>
<text text-anchor="start" x="349.35" y="-2008.86" font-family="Helvetica,sans-Serif" font-style="italic" font-size="32.00" fill="#29235c">INTEGER</text>
<polygon fill="#e7e2dd" stroke="transparent" points="88.57,-1927.66 88.57,-1987.66 502.57,-1987.66 502.57,-1927.66 88.57,-1927.66"/>
<polygon fill="none" stroke="#29235c" points="88.57,-1927.66 88.57,-1987.66 502.57,-1987.66 502.57,-1927.66 88.57,-1927.66"/>
<text text-anchor="start" x="99.57" y="-1947.86" font-family="Helvetica,sans-Serif" font-size="32.00" fill="#29235c">owner_id &#160;&#160;&#160;</text>
<text text-anchor="start" x="349.35" y="-1948.86" font-family="Helvetica,sans-Serif" font-style="italic" font-size="32.00" fill="#29235c">INTEGER</text>
<polygon fill="#e7e2dd" stroke="transparent" points="88.57,-1867.66 88.57,-1927.66 502.57,-1927.66 502.57,-1867.66 88.57,-1867.66"/>
<polygon fill="none" stroke="#29235c" points="88.57,-1867.66 88.57,-1927.66 502.57,-1927.66 502.57,-1867.66 88.57,-1867.66"/>
<text text-anchor="start" x="99.57" y="-1887.86" font-family="Helvetica,sans-Serif" font-size="32.00" fill="#29235c">dog_id &#160;&#160;&#160;</text>
<text text-anchor="start" x="349.35" y="-1888.86" font-family="Helvetica,sans-Serif" font-style="italic" font-size="32.00" fill="#29235c">INTEGER</text>
<polygon fill="#e7e2dd" stroke="transparent" points="88.57,-1807.66 88.57,-1867.66 502.57,-1867.66 502.57,-1807.66 88.57,-1807.66"/>
<polygon fill="none" stroke="#29235c" points="88.57,-1807.66 88.57,-1867.66 502.57,-1867.66 502.57,-1807.66 88.57,-1807.66"/>
<text text-anchor="start" x="99.57" y="-1827.86" font-family="Helvetica,sans-Serif" font-size="32.00" fill="#29235c">walker_id &#160;&#160;&#160;</text>
<text text-anchor="start" x="349.35" y="-1828.86" font-family="Helvetica,sans-Serif" font-style="italic" font-size="32.00" fill="#29235c">INTEGER</text>
<polygon fill="#e7e2dd" stroke="transparent" points="88.57,-1747.66 88.57,-1807.66 502.57,-1807.66 502.57,-1747.66 88.57,-1747.66"/>
<polygon fill="none" stroke="#29235c" points="88.57,-1747.66 88.57,-1807.66 502.57,-1807.66 502.57,-1747.66 88.57,-1747.66"/>
<text text-anchor="start" x="99.57" y="-1767.86" font-family="Helvetica,sans-Serif" font-size="32.00" fill="#29235c">status &#160;&#160;&#160;</text>
<text text-anchor="start" x="335.15" y="-1768.86" font-family="Helvetica,sans-Serif" font-style="italic" font-size="32.00" fill="#29235c">VARCHAR</text>
<polygon fill="#e7e2dd" stroke="transparent" points="88.57,-1687.66 88.57,-1747.66 502.57,-1747.66 502.57,-1687.66 88.57,-1687.66"/>
<polygon fill="none" stroke="#29235c" points="88.57,-1687.66 88.57,-1747.66 502.57,-1747.66 502.57,-1687.66 88.57,-1687.66"/>
<text text-anchor="start" x="99.57" y="-1707.86" font-family="Helvetica,sans-Serif" font-size="32.00" fill="#29235c">day_of_week &#160;&#160;&#160;</text>
<text text-anchor="start" x="335.15" y="-1708.86" font-family="Helvetica,sans-Serif" font-style="italic" font-size="32.00" fill="#29235c">VARCHAR</text>
<polygon fill="#e7e2dd" stroke="transparent" points="88.57,-1627.66 88.57,-1687.66 502.57,-1687.66 502.57,-1627.66 88.57,-1627.66"/>
<polygon fill="none" stroke="#29235c" points="88.57,-1627.66 88.57,-1687.66 502.57,-1687.66 502.57,-1627.66 88.57,-1627.66"/>
<text text-anchor="start" x="99.57" y="-1647.86" font-family="Helvetica,sans-Serif" font-size="32.00" fill="#29235c">time_of_day &#160;&#160;&#160;</text>
<text text-anchor="start" x="335.15" y="-1648.86" font-family="Helvetica,sans-Serif" font-style="italic" font-size="32.00" fill="#29235c">VARCHAR</text>
<polygon fill="#e7e2dd" stroke="transparent" points="88.57,-1567.66 88.57,-1627.66 502.57,-1627.66 502.57,-1567.66 88.57,-1567.66"/>
<polygon fill="none" stroke="#29235c" points="88.57,-1567.66 88.57,-1627.66 502.57,-1627.66 502.57,-1567.66 88.57,-1567.66"/>
<text text-anchor="start" x="99.57" y="-1587.86" font-family="Helvetica,sans-Serif" font-size="32.00" fill="#29235c">created_date &#160;&#160;&#160;</text>
<text text-anchor="start" x="329.8" y="-1588.86" font-family="Helvetica,sans-Serif" font-style="italic" font-size="32.00" fill="#29235c">DATETIME</text>
<polygon fill="#e7e2dd" stroke="transparent" points="88.57,-1507.66 88.57,-1567.66 502.57,-1567.66 502.57,-1507.66 88.57,-1507.66"/>
<polygon fill="none" stroke="#29235c" points="88.57,-1507.66 88.57,-1567.66 502.57,-1567.66 502.57,-1507.66 88.57,-1507.66"/>
<text text-anchor="start" x="99.45" y="-1527.86" font-family="Helvetica,sans-Serif" font-size="32.00" fill="#29235c">updated_date &#160;&#160;&#160;</text>
<text text-anchor="start" x="330.19" y="-1528.86" font-family="Helvetica,sans-Serif" font-style="italic" font-size="32.00" fill="#29235c">DATETIME</text>
<polygon fill="#e7e2dd" stroke="transparent" points="88.57,-1447.66 88.57,-1507.66 502.57,-1507.66 502.57,-1447.66 88.57,-1447.66"/>
<polygon fill="none" stroke="#29235c" points="88.57,-1447.66 88.57,-1507.66 502.57,-1507.66 502.57,-1447.66 88.57,-1447.66"/>
<text text-anchor="start" x="99.57" y="-1467.86" font-family="Helvetica,sans-Serif" font-size="32.00" fill="#29235c">created_by &#160;&#160;&#160;</text>
<text text-anchor="start" x="335.15" y="-1468.86" font-family="Helvetica,sans-Serif" font-style="italic" font-size="32.00" fill="#29235c">VARCHAR</text>
<polygon fill="none" stroke="#29235c" stroke-width="2" points="87.57,-1446.66 87.57,-2108.66 503.57,-2108.66 503.57,-1446.66 87.57,-1446.66"/>
</g>
<!-- WalkRequest&#45;&gt;Dog -->
<!-- WalkRequest&#45;&gt;Dog -->
<g id="edge4" class="edge">
<title>WalkRequest:e&#45;&gt;Dog:w</title>
<path fill="none" stroke="#29235c" stroke-width="3" d="M503.57,-1897.66C629.96,-1897.66 639.61,-2011.42 759.85,-2017.42"/>
<polygon fill="#29235c" stroke="#29235c" stroke-width="3" points="759.78,-2020.92 769.87,-2017.66 759.96,-2013.92 759.78,-2020.92"/>
<text text-anchor="middle" x="776.09" y="-2027.26" font-family="Helvetica,sans-Serif" font-size="32.00" fill="#29235c">*</text>
<text text-anchor="middle" x="494.68" y="-1907.26" font-family="Helvetica,sans-Serif" font-size="32.00" fill="#29235c">1</text>
</g>
<!-- WalkRequest&#45;&gt;Owner -->
<!-- WalkRequest&#45;&gt;Owner -->
<g id="edge6" class="edge">
<title>WalkRequest:e&#45;&gt;Owner:w</title>
<path fill="none" stroke="#29235c" stroke-width="3" d="M503.57,-1957.66C703.82,-1957.66 480.77,-296.32 627.14,-159.66 855.02,53.09 1100.95,53.34 1328.59,-159.66 1477.16,-298.68 1252.94,-1961.1 1442.22,-2016.26"/>
<polygon fill="#29235c" stroke="#29235c" stroke-width="3" points="1441.77,-2019.73 1452.16,-2017.66 1442.75,-2012.8 1441.77,-2019.73"/>
<text text-anchor="middle" x="1458.38" y="-1988.86" font-family="Helvetica,sans-Serif" font-size="32.00" fill="#29235c">*</text>
<text text-anchor="middle" x="494.68" y="-1967.26" font-family="Helvetica,sans-Serif" font-size="32.00" fill="#29235c">1</text>
</g>
<!-- Walker -->
<g id="Walker" class="node">
<title>Walker</title>
<ellipse fill="none" stroke="black" stroke-width="0" cx="977.87" cy="-765.66" rx="350.95" ry="596.6"/>
<polygon fill="#1d71b8" stroke="transparent" points="731.87,-1125.66 731.87,-1185.66 1223.87,-1185.66 1223.87,-1125.66 731.87,-1125.66"/>
<polygon fill="none" stroke="#29235c" points="731.87,-1125.66 731.87,-1185.66 1223.87,-1185.66 1223.87,-1125.66 731.87,-1125.66"/>
<text text-anchor="start" x="865.85" y="-1146.86" font-family="Helvetica,sans-Serif" font-weight="bold" font-size="32.00" fill="#ffffff"> &#160;&#160;&#160;&#160;&#160;&#160;Walker &#160;&#160;&#160;&#160;&#160;&#160;</text>
<polygon fill="#e7e2dd" stroke="transparent" points="731.87,-1065.66 731.87,-1125.66 1223.87,-1125.66 1223.87,-1065.66 731.87,-1065.66"/>
<polygon fill="none" stroke="#29235c" points="731.87,-1065.66 731.87,-1125.66 1223.87,-1125.66 1223.87,-1065.66 731.87,-1065.66"/>
<text text-anchor="start" x="742.87" y="-1086.86" font-family="Helvetica,sans-Serif" font-weight="bold" font-size="32.00" fill="#29235c">id</text>
<text text-anchor="start" x="767.76" y="-1086.86" font-family="Helvetica,sans-Serif" font-size="32.00" fill="#29235c"> &#160;&#160;&#160;</text>
<text text-anchor="start" x="1070.65" y="-1086.86" font-family="Helvetica,sans-Serif" font-style="italic" font-size="32.00" fill="#29235c">INTEGER</text>
<polygon fill="#e7e2dd" stroke="transparent" points="731.87,-1005.66 731.87,-1065.66 1223.87,-1065.66 1223.87,-1005.66 731.87,-1005.66"/>
<polygon fill="none" stroke="#29235c" points="731.87,-1005.66 731.87,-1065.66 1223.87,-1065.66 1223.87,-1005.66 731.87,-1005.66"/>
<text text-anchor="start" x="742.87" y="-1025.86" font-family="Helvetica,sans-Serif" font-size="32.00" fill="#29235c">first_name &#160;&#160;&#160;</text>
<text text-anchor="start" x="1056.44" y="-1026.86" font-family="Helvetica,sans-Serif" font-style="italic" font-size="32.00" fill="#29235c">VARCHAR</text>
<polygon fill="#e7e2dd" stroke="transparent" points="731.87,-945.66 731.87,-1005.66 1223.87,-1005.66 1223.87,-945.66 731.87,-945.66"/>
<polygon fill="none" stroke="#29235c" points="731.87,-945.66 731.87,-1005.66 1223.87,-1005.66 1223.87,-945.66 731.87,-945.66"/>
<text text-anchor="start" x="742.87" y="-965.86" font-family="Helvetica,sans-Serif" font-size="32.00" fill="#29235c">last_name &#160;&#160;&#160;</text>
<text text-anchor="start" x="1056.44" y="-966.86" font-family="Helvetica,sans-Serif" font-style="italic" font-size="32.00" fill="#29235c">VARCHAR</text>
<polygon fill="#e7e2dd" stroke="transparent" points="731.87,-885.66 731.87,-945.66 1223.87,-945.66 1223.87,-885.66 731.87,-885.66"/>
<polygon fill="none" stroke="#29235c" points="731.87,-885.66 731.87,-945.66 1223.87,-945.66 1223.87,-885.66 731.87,-885.66"/>
<text text-anchor="start" x="742.87" y="-905.86" font-family="Helvetica,sans-Serif" font-size="32.00" fill="#29235c">postal_code &#160;&#160;&#160;</text>
<text text-anchor="start" x="1056.44" y="-906.86" font-family="Helvetica,sans-Serif" font-style="italic" font-size="32.00" fill="#29235c">VARCHAR</text>
<polygon fill="#e7e2dd" stroke="transparent" points="731.87,-825.66 731.87,-885.66 1223.87,-885.66 1223.87,-825.66 731.87,-825.66"/>
<polygon fill="none" stroke="#29235c" points="731.87,-825.66 731.87,-885.66 1223.87,-885.66 1223.87,-825.66 731.87,-825.66"/>
<text text-anchor="start" x="742.87" y="-845.86" font-family="Helvetica,sans-Serif" font-size="32.00" fill="#29235c">phone &#160;&#160;&#160;</text>
<text text-anchor="start" x="1056.44" y="-846.86" font-family="Helvetica,sans-Serif" font-style="italic" font-size="32.00" fill="#29235c">VARCHAR</text>
<polygon fill="#e7e2dd" stroke="transparent" points="731.87,-765.66 731.87,-825.66 1223.87,-825.66 1223.87,-765.66 731.87,-765.66"/>
<polygon fill="none" stroke="#29235c" points="731.87,-765.66 731.87,-825.66 1223.87,-825.66 1223.87,-765.66 731.87,-765.66"/>
<text text-anchor="start" x="742.87" y="-785.86" font-family="Helvetica,sans-Serif" font-size="32.00" fill="#29235c">email &#160;&#160;&#160;</text>
<text text-anchor="start" x="1056.44" y="-786.86" font-family="Helvetica,sans-Serif" font-style="italic" font-size="32.00" fill="#29235c">VARCHAR</text>
<polygon fill="#e7e2dd" stroke="transparent" points="731.87,-705.66 731.87,-765.66 1223.87,-765.66 1223.87,-705.66 731.87,-705.66"/>
<polygon fill="none" stroke="#29235c" points="731.87,-705.66 731.87,-765.66 1223.87,-765.66 1223.87,-705.66 731.87,-705.66"/>
<text text-anchor="start" x="742.38" y="-725.86" font-family="Helvetica,sans-Serif" font-size="32.00" fill="#29235c">max_dogs_per_walk &#160;&#160;&#160;</text>
<text text-anchor="start" x="1070.76" y="-726.86" font-family="Helvetica,sans-Serif" font-style="italic" font-size="32.00" fill="#29235c">INTEGER</text>
<polygon fill="#e7e2dd" stroke="transparent" points="731.87,-645.66 731.87,-705.66 1223.87,-705.66 1223.87,-645.66 731.87,-645.66"/>
<polygon fill="none" stroke="#29235c" points="731.87,-645.66 731.87,-705.66 1223.87,-705.66 1223.87,-645.66 731.87,-645.66"/>
<text text-anchor="start" x="742.87" y="-665.86" font-family="Helvetica,sans-Serif" font-size="32.00" fill="#29235c">price_for_small &#160;&#160;&#160;</text>
<text text-anchor="start" x="1109.75" y="-666.86" font-family="Helvetica,sans-Serif" font-style="italic" font-size="32.00" fill="#29235c">FLOAT</text>
<polygon fill="#e7e2dd" stroke="transparent" points="731.87,-585.66 731.87,-645.66 1223.87,-645.66 1223.87,-585.66 731.87,-585.66"/>
<polygon fill="none" stroke="#29235c" points="731.87,-585.66 731.87,-645.66 1223.87,-645.66 1223.87,-585.66 731.87,-585.66"/>
<text text-anchor="start" x="742.87" y="-605.86" font-family="Helvetica,sans-Serif" font-size="32.00" fill="#29235c">price_for_medium &#160;&#160;&#160;</text>
<text text-anchor="start" x="1109.75" y="-606.86" font-family="Helvetica,sans-Serif" font-style="italic" font-size="32.00" fill="#29235c">FLOAT</text>
<polygon fill="#e7e2dd" stroke="transparent" points="731.87,-525.66 731.87,-585.66 1223.87,-585.66 1223.87,-525.66 731.87,-525.66"/>
<polygon fill="none" stroke="#29235c" points="731.87,-525.66 731.87,-585.66 1223.87,-585.66 1223.87,-525.66 731.87,-525.66"/>
<text text-anchor="start" x="742.87" y="-545.86" font-family="Helvetica,sans-Serif" font-size="32.00" fill="#29235c">price_for_large &#160;&#160;&#160;</text>
<text text-anchor="start" x="1109.75" y="-546.86" font-family="Helvetica,sans-Serif" font-style="italic" font-size="32.00" fill="#29235c">FLOAT</text>
<polygon fill="#e7e2dd" stroke="transparent" points="731.87,-465.66 731.87,-525.66 1223.87,-525.66 1223.87,-465.66 731.87,-465.66"/>
<polygon fill="none" stroke="#29235c" points="731.87,-465.66 731.87,-525.66 1223.87,-525.66 1223.87,-465.66 731.87,-465.66"/>
<text text-anchor="start" x="742.87" y="-485.86" font-family="Helvetica,sans-Serif" font-size="32.00" fill="#29235c">created_date &#160;&#160;&#160;</text>
<text text-anchor="start" x="1051.1" y="-486.86" font-family="Helvetica,sans-Serif" font-style="italic" font-size="32.00" fill="#29235c">DATETIME</text>
<polygon fill="#e7e2dd" stroke="transparent" points="731.87,-405.66 731.87,-465.66 1223.87,-465.66 1223.87,-405.66 731.87,-405.66"/>
<polygon fill="none" stroke="#29235c" points="731.87,-405.66 731.87,-465.66 1223.87,-465.66 1223.87,-405.66 731.87,-405.66"/>
<text text-anchor="start" x="742.87" y="-425.86" font-family="Helvetica,sans-Serif" font-size="32.00" fill="#29235c">updated_date &#160;&#160;&#160;</text>
<text text-anchor="start" x="1051.1" y="-426.86" font-family="Helvetica,sans-Serif" font-style="italic" font-size="32.00" fill="#29235c">DATETIME</text>
<polygon fill="#e7e2dd" stroke="transparent" points="731.87,-345.66 731.87,-405.66 1223.87,-405.66 1223.87,-345.66 731.87,-345.66"/>
<polygon fill="none" stroke="#29235c" points="731.87,-345.66 731.87,-405.66 1223.87,-405.66 1223.87,-345.66 731.87,-345.66"/>
<text text-anchor="start" x="742.87" y="-365.86" font-family="Helvetica,sans-Serif" font-size="32.00" fill="#29235c">created_by &#160;&#160;&#160;</text>
<text text-anchor="start" x="1056.44" y="-366.86" font-family="Helvetica,sans-Serif" font-style="italic" font-size="32.00" fill="#29235c">VARCHAR</text>
<polygon fill="none" stroke="#29235c" stroke-width="2" points="730.87,-344.66 730.87,-1186.66 1224.87,-1186.66 1224.87,-344.66 730.87,-344.66"/>
</g>
<!-- WalkRequest&#45;&gt;Walker -->
<!-- WalkRequest&#45;&gt;Walker -->
<g id="edge8" class="edge">
<title>WalkRequest:e&#45;&gt;Walker:w</title>
<path fill="none" stroke="#29235c" stroke-width="3" d="M503.57,-1837.66C672.49,-1837.66 563.12,-1125.78 720.62,-1096.59"/>
<polygon fill="#29235c" stroke="#29235c" stroke-width="3" points="721.22,-1100.05 730.87,-1095.66 720.59,-1093.07 721.22,-1100.05"/>
<text text-anchor="middle" x="737.09" y="-1105.26" font-family="Helvetica,sans-Serif" font-size="32.00" fill="#29235c">*</text>
<text text-anchor="middle" x="494.68" y="-1847.26" font-family="Helvetica,sans-Serif" font-size="32.00" fill="#29235c">1</text>
</g>
</g>
</svg>
